/* XPM */
static char *xcas[] = {
/* columns rows colors chars-per-pixel */
"64 64 256 2 ",
"   c #130AFB",
".  c #3B1CFB",
"X  c #1722FB",
"o  c #232DFC",
"O  c #3830FC",
"+  c #4500FB",
"@  c #4904FB",
"#  c #4D0AFB",
"$  c #5200FB",
"%  c #5E00FB",
"&  c #5C0EFB",
"*  c #5514FB",
"=  c #5C1DFB",
"-  c #521EFB",
";  c #6B01FB",
":  c #6408FB",
">  c #7600FB",
",  c #7C0AFB",
"<  c #7A07FB",
"1  c #651CFB",
"2  c #6D17FB",
"3  c #7918FB",
"4  c #711DFB",
"5  c #5421FC",
"6  c #6A23FC",
"7  c #6B2BFC",
"8  c #7C25FC",
"9  c #6D35FC",
"0  c #683BFC",
"q  c #7E31FC",
"w  c #7C3DFC",
"e  c #7437FC",
"r  c #3D46FC",
"t  c #434CFC",
"y  c #5D44FC",
"u  c #5049FC",
"i  c #4757FC",
"p  c #5A52FC",
"a  c #7742FC",
"s  c #7F42FC",
"d  c #7E4CFC",
"f  c #665FFD",
"g  c #7B5EFC",
"h  c #4772FC",
"j  c #6760FD",
"k  c #6B64FD",
"l  c #7A65FD",
"z  c #706AFD",
"x  c #6C72FD",
"c  c #757CFD",
"v  c #8403FB",
"b  c #8E00FB",
"n  c #890CFB",
"m  c #9B02FB",
"M  c #9F0AFB",
"N  c #930AFB",
"B  c #8C13FB",
"V  c #8317FB",
"C  c #9815FB",
"Z  c #911CFB",
"A  c #9A1AFB",
"S  c #A00DFB",
"D  c #A213FB",
"F  c #A51BFB",
"G  c #8025FC",
"H  c #852CFC",
"J  c #8F2DFC",
"K  c #8B25FC",
"L  c #9C28FC",
"P  c #8731FC",
"I  c #833AFC",
"U  c #8D3BFC",
"Y  c #8934FC",
"T  c #9232FC",
"R  c #9C34FC",
"E  c #983EFC",
"W  c #A720FC",
"Q  c #A924FC",
"!  c #AC2DFC",
"~  c #AE32FC",
"^  c #A13EFC",
"/  c #A93CFC",
"(  c #A634FC",
")  c #B036FC",
"_  c #B23BFC",
"`  c #8444FC",
"'  c #8944FC",
"]  c #864BFC",
"[  c #8D4AFC",
"{  c #9244FC",
"}  c #9B44FC",
"|  c #954CFC",
" . c #8657FC",
".. c #8C54FC",
"X. c #8C5BFC",
"o. c #9C54FC",
"O. c #9C5BFC",
"+. c #9359FC",
"@. c #A443FC",
"#. c #AD44FC",
"$. c #A24EFC",
"%. c #A94EFC",
"&. c #B644FC",
"*. c #B34BFC",
"=. c #B94CFC",
"-. c #A354FC",
";. c #AC54FC",
":. c #A45BFC",
">. c #AB5DFC",
",. c #B353FC",
"<. c #BC54FC",
"1. c #B45DFC",
"2. c #BD5CFC",
"3. c #8E62FD",
"4. c #8A6CFD",
"5. c #9563FD",
"6. c #9C64FD",
"7. c #9369FD",
"8. c #9C6CFD",
"9. c #837EFD",
"0. c #8B78FD",
"q. c #9C73FD",
"w. c #937DFD",
"e. c #9C7DFD",
"r. c #9272FD",
"t. c #AC64FD",
"y. c #A46BFD",
"u. c #AA6CFD",
"i. c #A261FD",
"p. c #B464FD",
"a. c #B963FD",
"s. c #B46CFD",
"d. c #BB6CFD",
"f. c #AC74FD",
"g. c #A67CFD",
"h. c #AA7AFD",
"j. c #B475FD",
"k. c #BC74FD",
"l. c #B37BFD",
"z. c #BB7BFD",
"x. c #C05EFC",
"c. c #C264FD",
"v. c #C66DFD",
"b. c #C374FD",
"n. c #C975FD",
"m. c #C47DFD",
"M. c #CA7BFD",
"N. c #438AFC",
"B. c #7B84FD",
"V. c #7494FD",
"C. c #7DADFD",
"Z. c #8783FD",
"A. c #8A85FD",
"S. c #8D8BFD",
"D. c #928DFD",
"F. c #9C8CFD",
"G. c #8D92FD",
"H. c #9297FD",
"J. c #9D93FD",
"K. c #9B9CFD",
"L. c #969CFD",
"P. c #A384FD",
"I. c #AC85FD",
"U. c #A48BFD",
"Y. c #AB8BFD",
"T. c #B484FD",
"R. c #BC83FD",
"E. c #B38CFD",
"W. c #BA8AFD",
"Q. c #A293FD",
"!. c #AF90FD",
"~. c #AB9BFD",
"^. c #B393FD",
"/. c #BD91FD",
"(. c #B39CFD",
"). c #BB9AFD",
"_. c #97A1FD",
"`. c #9CA3FD",
"'. c #93B2FD",
"]. c #90BAFD",
"[. c #9CB2FD",
"{. c #ACA4FE",
"}. c #A2ABFE",
"|. c #ACACFE",
" X c #A4A1FE",
".X c #B4A5FE",
"XX c #BDA5FE",
"oX c #B4ABFE",
"OX c #A2B7FE",
"+X c #AAB3FE",
"@X c #AEB9FE",
"#X c #A3B9FE",
"$X c #B5B2FE",
"%X c #B4BBFE",
"&X c #BCBBFE",
"*X c #BDB4FE",
"=X c #C484FD",
"-X c #CB83FD",
";X c #C589FD",
":X c #CB8CFD",
">X c #D18CFD",
",X c #C393FD",
"<X c #CC93FD",
"1X c #C39AFD",
"2X c #CB9AFD",
"3X c #D293FD",
"4X c #D19CFD",
"5X c #D89EFE",
"6X c #C4A3FE",
"7X c #CDA2FD",
"8X c #C2AAFE",
"9X c #C9AEFE",
"0X c #D2A2FE",
"qX c #DCA4FE",
"wX c #D4ACFE",
"eX c #DAABFE",
"rX c #C3B6FE",
"tX c #CCB1FE",
"yX c #C3BCFE",
"uX c #CBBBFE",
"iX c #D5B1FE",
"pX c #DAB4FE",
"aX c #D6BBFE",
"sX c #DABAFE",
"dX c #E1B2FE",
"fX c #E4BAFE",
"gX c #9EC2FD",
"hX c #94C9FD",
"jX c #9ED7FD",
"kX c #A6C2FE",
"lX c #B3C4FE",
"zX c #B7CBFE",
"xX c #A5D0FE",
"cX c #B3D4FE",
"vX c #B6D9FE",
"bX c #8CE1FD",
"nX c #A4E0FE",
"mX c #B7E5FE",
"MX c #AEF7F9",
"NX c #B5F7F8",
"BX c #C4C3FE",
"VX c #CAC0FE",
"CX c #CFC8FE",
"ZX c #D3C2FE",
"AX c #DFC3FE",
"SX c #DECAFE",
"DX c #C5D6FE",
"FX c #CFD6FE",
"GX c #C4D8FE",
"HX c #DED6FE",
"JX c #D5D2FE",
"KX c #E3C8FE",
"LX c #E2C3FE",
"PX c #E5D2FE",
"IX c #EAD5FE",
"UX c None",
/* pixels */
"UXUXUXUXUXUXUXUXUXUXUXUXUXUXUXUXUXUXUXUXUXUXUXUXUXUXUXUXUXUXUXUXUXUXUXUXUXUXUXUXUXUXUXUXUXUXUXUXUXUXUXUXUXUXUXUXUXUXUXUXUXUXUXUX",
"UXUXUXUXUXUXUXUXUXUXUXUXUXUXUXUXUXUXUXUXUXUXUXUXUXUXUXUXUXUXUXUXUXUXUXUXUXUXUXUXUXUXUXUXUXUXUXUXUXUXUXUXUXUXUXUXUXUXUXUXUXUXUXUX",
"UXUXUXUXUXUXUXUXUXUXUXUXUXUXUXUXUXUXUXUXUXUXUXUXUXUXUXUXUXUXUXUXUXUXUXUXUXUXUXUXUXUXUXUXUXUXUXUXUXUXUXUXUXUXUXUXUXUXUXUXUXUXUXUX",
"UXUXUXUXUXUXUXUXUXUXUXUXUXUXUXUXUXUXUXUXUXUXUXUXUXUXUXUXUXUXUXUXUXUXUXUXUXUXp.z.UXUXUXUXUXUXUXUXUXUXUXUXUXUXUXUXUXUXUXUXUXUXUXUX",
"UXUXUXUXUXUXUXUXUXUXUXUXUXUXUXUXUXUXUXUXUXUXUXUXUX%X$XUXUXUXUXUXUXUXUXUXUXUX;Xz.UXUXUXUXUXUXUXUXUXUXUXUXUXUXUXUXUXUXUXUXUXUXUXUX",
"UXUXUXUXUXUXUXUXUXUXUXUXUXUXUXUXUXUXUXUXUXUXUXUXUX$XD.UXUXUXUXUXUXUXUXUXUX1.;Xd.k.UXUXUXUXUXUXUXUXUXUXUXUXUXUXUXUXUXUXUXUXUXUXUX",
"UXUXUXUXUXUXUXUXUXUXUXUXUXUXUXUXUXUXUXUXUXUXUXUXUXyX$XVXUXUXUXUXUXUXUXUXUXk.UXUXk.UXUXUXUXUXUXUXUXUXUXUXUXUXUXUXUXUXUXUXUXUXUXUX",
"UXUXUXUXUXUXUXUXUXUXUXUXUXUXUXUXUXUXUXUXUXUXUXUXUXrXg w.HXUXUXUXUXUXUXUXk.UXUXUX=X=XUXUXUXUXUXUXUXUXUXUXUXUXUXUXUXUXUXUXUXUXUXUX",
"UXUXUXUXUXUXUXUXUXUXUXUXUXR.j.j.R.UXUXUXUXUXUXUXUXVX4.U.uXUXUXUXUXUXUXUX=XUXUXUXUX;XUXUXUXUXUXUXUXUXUXUXUXUXUXUXUXUXUXUXUXUXUXUX",
"UXUXUXUXUXUXUXUXUXUXUXUXR.z.UXUXUXUXUXUXUXUXUXUXUX8XuXZX).UXUXUXUXUXUXUXUXUXUXUXUXUXUXUXUXUXUXUXUXUXCXyXUXUXUXUXUXUXUXUXUXUXUXUX",
"UXUXUXUXUXUXUXUXUXUXUXUXj.UXUXUXUXUXUXUXUXUXUXUXUXUXI.^.I.UX9XUXUXUXUXUXUXUXUXUXUXUXUXUXUXUXUXUXUXuX~.uXUXUXUXUXUXUXUXUXUXUXUXUX",
"UXUXUXUXUXUXUXUXUXUXUXUXz.UXUXUXUXUXUXUXUXUXUXUXUXUX8.1 ` I.UXUXUXUXUXUXUXUXUXUXUXUXUXUXUXUXUXUXZXXX(.UXUXUXUXUXUXUXUXUXUXUXUXUX",
"UXUXUXUXUXUXUXUXUXUXUXUXj.UXUXUXUXUXUXUXUXUXUXUXUX).8.1 w I.UXUXUXUXUXUXUXUXUXUXUXUXUXUXUXUXUXtX..E.UXUXUXUXUXUXUXUXUXUXUXUXUXUX",
"UXUXUXUXUXUXUXUXUXUXUXUXUXj.z.z.z.UXUXUXUXUXUXUXUXUXg.g.I.UXW.UXUXUXUXUXUXUXUXUXUXUXUXUXUXUX6XtX6.^.UXUXUXUXUXUXUXUXUXUXUXUXUXUX",
"UXUXUXUXUXUXUXUXUXUXUXUXUXUXUXUXUXUXUXUXUXUXUXUXUX/.6XUX).UXj.UXUXUXUXUXUXUXUXUXUXUXUXUXW.1XT.SXtXZXUXUXUXUXUXUXUXUXUXUXUXUXUXUX",
"UXUXUXUXUXUXUXUXUXUXUXUXUXUXUXUXUXUXUXUXUXUXUXUXUX2Xj.UXUXUX:.UXUXUXUXUXUXUXUXUXUXUXsXUX,XU U j.1XUXUXUXUXUXUXUXUXUXUXUXUXUXUXUX",
"UXUXUXUXUXUXUXUXUXUXUXUXUXUXUXUXUXUXUXUXUXUXUXUXUXUXu.>.UXs.$.UXUXUXUXpXIXUXUXUXUXUX;X,Xl.G 3 f.UXUXUXUXUXUXUXUXUXUXUXUXUXUXUXUX",
"UXUXUXUXUXUXUXUXUXUXUXUXUXUXUXUXUXUXUXUXUXUXUXUXUXUXUXE t.} t.UXt.t.W.UXUX<XUXUXUXUXs.UX/.f.u.,X1XUXUXUXUXUXUXUXUXUXUXUXUXUXUXUX",
"UXUXUXUXUXUXUXUXUXUXUXUXUXUXUXUXUXUXUXUXUXUXUXUXUXUXUXR.V , J T -.UXUXUXUXUXp.UXUXz.1.UX1XUXW.UXUXUXUXUXUXUXUXUXM.m.-XUXUXUXUXUX",
"UXUXUXUXUXUXUXUXUXUXUXUXUXUXUXUXUXUXUXUXUXUXLX,Xs.-.E J , > , j.UXUXUXUXUXUXp.%.UX%.p.UXUXUX=XpXUXUXUXUXUXUXUXUXb.UXUXUXUXUXUXUX",
"UXUXUXUXUXcX[.}.BXBXUXUXUXUXUXUXUXUXUXUXUXsXUXUXUXUXUXR.V < K T >.UXUXdXUXUXUX@.%.L z.d.%.p.UXUXUXUXUXUXUXUXUXUXb.-XUXUXUXUXUXUX",
"UXUXUXUXUXUXlX}.S.f oX(.UXU.UXUXUXUXUXUXUX/.UXUXUXUXUX} -.} t.UX>.t.=X-XUXUX=Xp.n v Z ^ z.UXUXUXUXUXUXUXUXUXUXUXUX<Xb.UXUXUXUXUX",
"UXUXUXUXUXUXUXUXA.k BX.Xr.7.(.!.T.UXUXUXl.l.UXUXUXUXs.-.UXt.$.UXUXUXp.1.k.;.^ R v v B z.UXUXUXUXUXUXUXUXUXUXUXUXUXUX-X:XUXUXUXUX",
"UXUXUXUXUXUXUXUXJX*X.XP.- - e.UXl.u.UXUXO.UXUXUXqX-Xf.UXUXUX>.UXUXUX<.>XUXUXUXd.Z B @.^ %.UXUXUXUXUXUXUXUXUXUXUXUXm.b.UXUXUXUXUX",
"UXUXUXUXUXUXUXUXUXUXUXU.0 0 w.UXUXo.O.UXU UXUXUXz.@.:XUXUXUXj.UXUXUX_ UXUXUXUXR ;X^ k.UXk.s.:XUXUXUXUXUXUXUXUXUXUXUXUXUXUXUXUXUX",
"UXUXUXUXUXUXUXUXUXUXUXU.(.e.UXUXUXUXP { H T.| o.W.<X&.UXUXUX2XUXUXv.! UXUXUX1.z.UX1.1.UXUXUXUXLXUXUXUXUXUXUXUXUXUXUXUXUXUXUXUXUX",
"UXUXUXUXUXUXUXUXUXUXUXUXUX^.UXUXl.u.U ; ; H :.UXUXUXc.~ UXUXUXUXUX&.~ UXUX=X=XUXUXUXp.UXUXUXUXUXUXUXUXUXUXUXUXUXUXUXUXUXUXUXUXUX",
"UXUXUXUXUXUXUXUXUXUXUXUXUX6XW.u.o.{ G ; ; P /.UXUXUXUX) ! UXUXUXUXW _ UXUXwXUXUXUXUXk.5XfXUXUX<XUXUXUXUXUXUXUXUXUXUXUXUXUXUXUXUX",
"UXUXUXUXUXUXUXUXUXUXUXUXUXUXUXUXUXUXU G G -.U O.UXUXUXUXF ) UXUXn.M x.UXUXUXUXUXUXc.#.M.UXUXUXd.UXUXUXUXUXUXUXUXUXUXUXUXUXUXUXUX",
"UXUXUXUXUXUXUXUXUXUXUXUXUXUXUXUXUXO.{ 1XY UXUXj.f.1XUXUXx.m _ UX=.m x.UXUXUXc.) ) c.eXd.UXUXUX,.UXUXUXUXUXUXUXUXUXUXUXUXUXUXUXUX",
"UXUXl.UXUXUXUXUXUXUXUXUXUXUXUXUXUXO.UXUX| UXUXUXUXUXUXUXUX~ m _ W M -X-X&.F D =.UXUXUXUX#.UXb.#.UXUXUX:X4XUX0XUXUXUXUXUXUXUXUXUX",
"UXUXu.l.UXUXu.UXUXUXUXUXUXUXUXUXT.UXUXUXu.T.UXUXUXUXUXUXUX3XD m m m W M m ~ -XUXUXUXUXUX2./ / ,.-X*.1.UX<X2Xm.UXUXsXIXUXUXUXUXUX",
"UXUXUXu.y.u.UXUXUXUXUXUXUXUXUXaXUXUXUXUX<Xu.UXv.c.x.=.&._ ~ S m m m m W c.UXUXUXUXUXUXUXb.A b C ( b.UXUX0X%.R k.0X7Xz.wXtXaXUXUX",
"UXUXUXW.| l.UXUXUXUXUXUXUXUXUXPXUXUXUXfX=X%.2.&.) Q F D M m m m m m m =.UXUXUXUX4Xb.2.#./ C b b 1.UXUX4X=XR n s.LX1X} 7X,X1XtXUX",
"UXUXUXu.UXu.l.UXUXUXUXUXUXUXUXUX).UXUXUXT.T.UXUXUXUXUXUXUXM.F m m m m m Q v.UXUXUXUXUXUX<XW C / / #.m.UXUXd.p.<X<XpXiXUXUXUXUXUX",
"UXUXu.UXUXUXu.UXUXUXUXUXUXUXUXUXh.f.UXUXO.UXUXUXUXUXUXUXUXx.m D M M x.) D M _ UXUXUXUXUX/ a.1.,.UXUXd.-X<XUX:XUXUXUXUXUXUXUXUXUX",
"UXUXUXUXUXUXUXUXUXUXUXUXUXUXUXUXUX[ f.UX` UXUXUXUX1XUXUXUXD D -X_ m M.UXUX<.! W <.UXUXk.a.UXUX*.UXUXUXUXpXUXUXUXUXUXUXUXUXUXUXUX",
"UXUXUXUXUXUXUXUXUXUXUXUXUXUXUXUXUXUXq O.q 1X6.+.f.UXUXUX) S v.UXc.m x.UXUXUXUXn.&.=.s.b.UXUXUX1.UXUXUXUXUXUXUXUXUXUXUXUXUXUXUXUX",
"UXUXUXUXUXUXUXUXUXUXUXUXUXUXUXUXUXW.` : : q [ UXUXUXUX2.D v.UXUXUXD =.UXUXUXUXUXUXUXO.-XUXUXUX-XUXUXUXUXUXUXUXUXUXUXUXUXUXUXUXUX",
"UXUXUXUXUXUXUXUXUXUXUXUXUX(.h.6.[ I 4 % % q UXUXUXUXUXQ c.UXUXUXUX! ) UXUX^.UXUXUXUX8.UXUXUXUXUXUXUXUXUXUXUXUXUXUXUXUXUXUXUXUXUX",
"UXUXUXUXUXUXUXUXUXUXUXQ.UXF.UXUXUXUX' 2 2 ` I i.UXUX&.2.UXUXUXUXUX<.! UXUXUX3.UXUXq.3.UXUXUXUXUXUXUXUXUXUXUXUXUXUXUXUXUXUXUXUXUX",
"UXUXUXUXUXUXUXUXUXUXUXQ.l l J.~.UXy.I T.q UXUX6.y.>.c.UXUXUXI.UXUXUX~ UXUXUX7.d UX] 3.UXUXUX!.uXUXUXUXUXUXUXUXUXUXUXUXUXUXUXUXUX",
"UXUXUXUXUXUXUXUXUX&XQ.0.. . 0.UXUX..UXUX[ UXUXUX4X:.E.UXUXUX5.UXUXUX&.UXUXUXUXa d 7 q.7.d 7.UXUXUXUXUXUXUXUXUXUXUXUXUXUXUXUXUXUX",
"UXUXUXUXUXUXUXUX+X`.BX.Xy y 0.~.h.UXUXUX6.f.UXUXdXUX5.g.UXg...UXUXUXd.k.UXUXe.X.# + = a UXUXUXUXUXUXUXUXUXUXUXUXUXUXUXUXUXUXUXUX",
"UXUXUXUXUXUXUXzXB.i @XJ.{.w.UXXX8XUXUXUXUXT.UXUXUXUXUXw E.X...UXUXg.6.i.q. .a 9 @ + * q.UXUXUXUXUXUXUXUXUXUXUXUXUXUXUXUXUXUXUXUX",
"UXUXUXUXUXUXgX'.+X`.&XUXUX{.UXUXUXUXUXUXUX6XUXUXUXUXUX8.7 1 ..] ` q.UXqXUXUXUX7.= * d 9 d UXUXUXUXUXUXUXUXUXUXUXUXUXUXUXUXUXUXUX",
"UXUXUXUXUXmXvXFXUXUXUXUXUXUXUXUXUXUXUXUXUXUXUX).g.5...` & $ & ..UXUXUXUXUXUXUX9 U.e e.UXP.7.U.UXUXUXUXUXUXUXUXUXUXUXUXUXUXUXUXUX",
"UXUXUXUXUXUXUXUXUXUXUXUXUXUXUXUXUXUXUXUXUXUXUXUXI.8.5.+.& $ & ] UXUXUXUXUXUXX.q.UX3.3.UXUXUXJ.rXUXUXUXUXUXUXUXUXUXUXUXUXUXUXUXUX",
"UXUXUXUXUXUXUXUXUXUXUXUXUXUXUXUXUXUXUXUXUXUXUXUXUXUXUX5.9 6 +.+.` 8.UXUXUXY.Y.UXUXUX3.UXG.`.B.UXUXUXUXUXUXUXUXUXUXUXUXUXUXUXUXUX",
"UXUXUXUXUXUXUXUXUXUXUXUXUXUXUXUXUXUXUXUXUXUXUXUXUXUXUXw 6XX...UXUXg.I.tXUXXXUXUXUXUXg.UXL.t r c `.UXUXUXUXUXUXUXUXUXUXUXUXUXUXUX",
"UXUXUXUXUXUXUXUXUXUXUXUXUXUXUXUXUXUXUXUXUXUXUXUXUXUX5.E.UXE...UXUXUXUXUXUXUXUXUXUXUX~.K.c o X c UXUXUXUXUXUXUXUXUXUXUXUXUXUXUXUX",
"UXUXUXUXUXUXUXUXUXUXUXUXUXUXUXUXUXUXUXUXUXUXUXUXUXU.^.UX|.UX8.UXUXUXUXUXUXUXUXUXUXUXUXUXL.x x }.`.UXUXUXUXUXUXUXUXUXUXUXUXUXUXUX",
"UXUXUXUXUXUXUXUXUXUXUXUXUXUXUXUXUXUXUXUXUXUXUXUXUX.XD.{.S.UXP.UXUXUXUXUXUXUXUXUXUXUXUXUX`.UXG.DXgXzXUXUXUXUXUXUXUXUXUXUXUXUXUXUX",
"UXUXUXUXUXUXUXUXUXUXUXUXUXUXUXUXUXUXUXUXUXUXUXUXUXUX9.u k Z.~.UXUXUXUXUXUXUXUXUXUXUXUXUXUXUX@XkXN.C.UXUXUXUXUXUXUXUXUXUXUXUXUXUX",
"UXUXUXUXUXUXUXUXUXUXUXUXUXUXUXUXUXUXUXUXUXUXUXUX*XS.j   O K.UXUXUXUXUXUXUXUXUXUXUXUXUXUXUXUXUXGX].xXmXUXUXUXUXUXUXUXUXUXUXUXUXUX",
"UXUXUXUXUXUXUXUXUXUXUXUXUXUXUXUXUXUXUXUXUXUXUXUXUXUX9.p z A.{.UXUXUXUXUXUXUXUXUXUXUXUXUXUXUXUXUXUXnXbXUXUXUXUXUXUXUXUXUXUXUXUXUX",
"UXUXUXUXUXUXUXUXUXUXUXUXUXUXUXUXUXUXUXUXUXUXUXUXUXUX X&XD.UXUXUXUXUXUXUXUXUXUXUXUXUXUXUXUXUXUXUXUXUXMXNXUXUXUXUXUXUXUXUXUXUXUXUX",
"UXUXUXUXUXUXUXUXUXUXUXUXUXUXUXUXUXUXUXUXUXUXUXUXUX%XOXlX|.UXUXUXUXUXUXUXUXUXUXUXUXUXUXUXUXUXUXUXUXUXUXUXUXUXUXUXUXUXUXUXUXUXUXUX",
"UXUXUXUXUXUXUXUXUXUXUXUXUXUXUXUXUXUXUXUXUXUXUXUXUXzXh V.FXUXUXUXUXUXUXUXUXUXUXUXUXUXUXUXUXUXUXUXUXUXUXUXUXUXUXUXUXUXUXUXUXUXUXUX",
"UXUXUXUXUXUXUXUXUXUXUXUXUXUXUXUXUXUXUXUXUXUXUXUXUXDX'.#XUXUXUXUXUXUXUXUXUXUXUXUXUXUXUXUXUXUXUXUXUXUXUXUXUXUXUXUXUXUXUXUXUXUXUXUX",
"UXUXUXUXUXUXUXUXUXUXUXUXUXUXUXUXUXUXUXUXUXUXUXUXUXvXhXUXUXUXUXUXUXUXUXUXUXUXUXUXUXUXUXUXUXUXUXUXUXUXUXUXUXUXUXUXUXUXUXUXUXUXUXUX",
"UXUXUXUXUXUXUXUXUXUXUXUXUXUXUXUXUXUXUXUXUXUXUXUXUXmXjXUXUXUXUXUXUXUXUXUXUXUXUXUXUXUXUXUXUXUXUXUXUXUXUXUXUXUXUXUXUXUXUXUXUXUXUXUX",
"UXUXUXUXUXUXUXUXUXUXUXUXUXUXUXUXUXUXUXUXUXUXUXUXUXNXNXUXUXUXUXUXUXUXUXUXUXUXUXUXUXUXUXUXUXUXUXUXUXUXUXUXUXUXUXUXUXUXUXUXUXUXUXUX",
"UXUXUXUXUXUXUXUXUXUXUXUXUXUXUXUXUXUXUXUXUXUXUXUXUXUXUXUXUXUXUXUXUXUXUXUXUXUXUXUXUXUXUXUXUXUXUXUXUXUXUXUXUXUXUXUXUXUXUXUXUXUXUXUX"
};

